<?xml version="1.0" encoding="UTF-8" standalone="no"?>
<!-- Created with Inkscape (http://www.inkscape.org/) -->
<svg xmlns:rdf="http://www.w3.org/1999/02/22-rdf-syntax-ns#" xmlns="http://www.w3.org/2000/svg" xmlns:cc="http://web.resource.org/cc/" xmlns:xlink="http://www.w3.org/1999/xlink" xmlns:dc="http://purl.org/dc/elements/1.1/" xmlns:svg="http://www.w3.org/2000/svg" xmlns:inkscape="http://www.inkscape.org/namespaces/inkscape" xmlns:sodipodi="http://sodipodi.sourceforge.net/DTD/sodipodi-0.dtd" xmlns:ns1="http://sozi.baierouge.fr" id="svg1" viewBox="0 0 150 150" version="1.0" y="0" x="0" inkscape:version="0.91 r13725">
  <defs id="defs3">
    <linearGradient id="linearGradient855">
      <stop id="stop856" style="stop-color:#ffffff;stop-opacity:0" offset="0"/>
      <stop id="stop857" style="stop-color:#5f0e00;stop-opacity:.41667" offset="1"/>
    </linearGradient>
    <linearGradient id="linearGradient829">
      <stop id="stop830" style="stop-color:#ffffff;stop-opacity:0.525" offset="0"/>
      <stop id="stop831" style="stop-color:#ffffff;stop-opacity:0" offset="1"/>
    </linearGradient>
    <linearGradient id="linearGradient1374" x1="109.53" xlink:href="#linearGradient855" gradientUnits="userSpaceOnUse" y1="332.17" gradientTransform="matrix(0.356 -.043946 .029472 .23875 -12.355 9.0609)" x2="370.9" y2="332.17"/>
    <linearGradient id="linearGradient1379" x1="62.831" xlink:href="#linearGradient829" gradientUnits="userSpaceOnUse" y1="339.77" gradientTransform="matrix(.44692 -.055169 .023476 .19018 -12.355 9.0609)" x2="312.91" y2="191.32"/>
  </defs>
  <g id="g2145">
    <path id="path847" style="fill-rule:evenodd;fill:#ffe200" d="m104.35 22.402c-6.093-4.427 8.03-9.871 10.08-8.274 3.1 1.098-2.23 2.866-1.56 5.372 0.68 2.506 1.98 16.035 4.99 16.404 3 0.369 6.96 2.47 7.41 6.114 11.9 21.469-16.16 87.832-104.53 67.292-1.594-0.92-10.736-9.04-12.464-11.043-1.0437-2.461-2.9017-8.521 1.2015-11.247 36.32-14.473 82.07-0.512 96.302-47.036 2.34-8.058-1.43-17.582-1.43-17.582z"/>
    <path id="path849" style="fill-rule:evenodd;stroke-width:1pt;fill:url(#linearGradient1379)" d="m10.836 92.032l0.279-3.734c25.708-13.533 78.287 1.805 96.625-47.446-7.976 34.283-26.639 56.935-96.904 51.18z"/>
    <path id="path852" style="fill-rule:evenodd;stroke-width:1pt;fill:#442400" d="m8.1063 96.85c-0.933-5.322-1.4229-7.054 1.452-9.202 1.5957 1.852 2.1147 8.136-1.452 9.202z"/>
    <path id="path853" style="fill-rule:evenodd;stroke-width:1pt;fill:url(#linearGradient1374)" d="m39.818 111.02c65.752 8.16 82.422-34.775 85.102-44.91 5.12-12.471-0.51-25.095-0.51-25.095 4.49 39.402-32.772 76.185-84.592 70.005z"/>
  </g>
  <g id="g2152" transform="matrix(.98655 -.16348 .16348 .98655 1.1189 19.351)">
    <path id="path2154" style="fill-rule:evenodd;fill:#ffe200" d="m104.35 22.402c-6.093-4.427 8.03-9.871 10.08-8.274 3.1 1.098-2.23 2.866-1.56 5.372 0.68 2.506 1.98 16.035 4.99 16.404 3 0.369 6.96 2.47 7.41 6.114 11.9 21.469-16.16 87.832-104.53 67.292-1.594-0.92-10.736-9.04-12.464-11.043-1.0437-2.461-2.9017-8.521 1.2015-11.247 36.32-14.473 82.07-0.512 96.302-47.036 2.34-8.058-1.43-17.582-1.43-17.582z"/>
    <path id="path2156" style="stroke-width:1pt;fill:url(#linearGradient1379);fill-rule:evenodd" d="m10.836 92.032l0.279-3.734c25.708-13.533 78.287 1.805 96.625-47.446-7.976 34.283-26.639 56.935-96.904 51.18z"/>
    <path id="path2160" style="fill-rule:evenodd;stroke-width:1pt;fill:#442400" d="m8.1063 96.85c-0.933-5.322-1.4229-7.054 1.452-9.202 1.5957 1.852 2.1147 8.136-1.452 9.202z"/>
    <path id="path2162" style="stroke-width:1pt;fill:url(#linearGradient1374);fill-rule:evenodd" d="m39.818 111.02c65.752 8.16 82.422-34.775 85.102-44.91 5.12-12.471-0.51-25.095-0.51-25.095 4.49 39.402-32.772 76.185-84.592 70.005z"/>
  </g>
  <g id="g2168" transform="matrix(.95150 -.30764 .30764 .95150 6.3233 37.294)">
    <path id="path2170" style="fill-rule:evenodd;fill:#ffe200" d="m104.35 22.402c-6.093-4.427 5.86-10.018 7.91-8.421 3.09 1.098-2.15 3.45-1.47 5.956s4.06 15.598 7.07 15.967c3 0.369 6.96 2.47 7.41 6.114 11.9 21.469-16.16 87.832-104.53 67.292-1.594-0.92-10.736-9.04-12.464-11.043-1.0437-2.461-2.9017-8.521 1.2015-11.247 36.32-14.473 82.07-0.512 96.302-47.036 2.34-8.058-1.43-17.582-1.43-17.582z"/>
    <path id="path2172" style="stroke-width:1pt;fill:url(#linearGradient1379);fill-rule:evenodd" d="m10.836 92.032l0.279-3.734c25.708-13.533 78.287 1.805 96.625-47.446-7.976 34.283-26.639 56.935-96.904 51.18z"/>
    <path id="path2176" style="fill-rule:evenodd;stroke-width:1pt;fill:#442400" d="m8.1063 96.85c-0.933-5.322-1.4229-7.054 1.452-9.202 1.5957 1.852 2.1147 8.136-1.452 9.202z"/>
    <path id="path2178" style="stroke-width:1pt;fill:url(#linearGradient1374);fill-rule:evenodd" d="m39.818 111.02c65.752 8.16 82.422-34.775 85.102-44.91 5.12-12.471-0.51-25.095-0.51-25.095 4.49 39.402-32.772 76.185-84.592 70.005z"/>
  </g>
  <path id="path3021" style="fill-rule:evenodd;stroke-width:1pt;fill:#442400" d="m103.6 18.559c-1.4-5.049 13.7-7.101 13.96-1.376-2.16 1.837-6.48 6.046-13.96 1.376z"/>
  <path id="path2186" style="fill-rule:evenodd;fill:#000000" d="m112.44 11c-4.2 0.314-8.71 2.088-11.22 5.6-1.788 3.424 2.5 5.922 2.32 9.445 1.27 5.216 1.08 10.797-1.09 15.749-3.571 10.206-10.496 19.455-20.15 24.584-12.823 6.923-27.623 8.206-41.786 10.324-11.042 1.604-22.211 3.422-32.576 7.704-4.1065 2.741-3.6429 8.473-1.9414 12.489 1.8733 3.215 5.2854 5.285 7.8944 7.915 2.128 2.37 5.392 4.14 7.617 5.57 0.744 3.88 4.123 5.92 7.228 7.81 3.251 1.95 6.365 4.27 9.889 5.69 2.99 0.28 3.405 5.31 7.087 5.68 4.391 1.94 8.735 4.23 13.382 5.44 21.763-1.83 43.906-7.87 61.266-21.6 15.03-11.75 25.59-29.648 26.72-48.867 0.5-9.501-0.96-19.95-7.52-27.297-2.03-3.321-5.71-5.536-9.7-5.037-3.51 0.486-4.72-5.144-6.63-7.571-1.08-2.87-6.65-3.13-3.95-6.112 0.84-3.968-1.61-5.223-3.44-6.766-1.23 0.113-2.1-0.845-3.4-0.75zm0.37 2.906c1.76 0.795 5.35 2.076 3.5 4.927-1.32 3.341 5.2 7.632 6.18 10.593 2.12 3.314 1.74 4.72 5.92 5.867 3.37-0.763 7.1 0.363 8.75 3.54 5.82 6.44 7.23 15.589 7.06 23.979-0.63 19.467-11.47 37.688-26.89 49.228-16.69 12.67-37.63 18.22-58.236 19.99-4.915-1.76-9.693-3.92-14.344-6.28-1.83-2.12-2.452-5.72-5.974-4.95-4.504-2.47-8.851-5.25-13.026-8.24-1.62-2.51-1.551-6.42-5.416-6.22-4.05-3.19-7.91-6.63-11.522-10.309-1.3379-3.045-2.2817-8.452 1.941-9.576 20.007-7.514 41.932-6.545 62.216-12.952 10.945-3.411 21.053-10.244 27.091-20.143 3.27-5.439 6.04-11.37 7.07-17.67 0.56-5.261-0.32-10.683-2.33-15.554-3.29-2.143 1.9-4.626 3.85-5.275 1.27-0.488 3.06-0.972 4.16-0.955z"/>
  <path id="path3023" style="fill-rule:evenodd;fill:#000000" d="m113.06 46.184c-0.85 10.763-6.28 18.346-13.466 24.785-7.187 6.438-16.669 11.178-26.594 15.062-9.925 3.885-20.292 6.925-29.25 10-8.958 3.076-17.817 4.319-22.164 10.309l3.856-0.07c3.312-4.97 9.991-5.71 18.916-8.773 8.925-3.064 19.565-6.358 29.545-10.264 9.981-3.906 19.017-8.947 26.347-15.514 7.33-6.568 12.41-14.975 13.28-26l-0.47 0.465z"/>
  <path id="path3025" style="fill-rule:evenodd;fill:#000000" d="m121.15 49.464c-1.58-0.371 0.01-1.564-0.12-0.6 0.22 8.259-3.48 15.112-8.49 21.638-6.84 9.007-15.628 16.196-25.315 21.777-11.384 6.558-23.514 11.711-34.848 18.351-4.012 2.46-9.366 6.17-12.322 9.9 0.986 1.41 3.423-0.97 4.293-1.52 5.383-5.16 11.613-9.32 18.144-12.77 14.047-7.217 28.408-12.671 40.548-23.931 7.64-6.138 13.33-12.954 16.03-22.548 1.2-4.191 2.39-5.953 2.08-10.297z"/>
  <path id="path3034" style="fill-rule:evenodd;fill:#000000" d="m113.19 26.167l-0.35-0.323s1.73 3.095 3.5 6.875c1.78 3.779 3.6 8.302 3.85 10.906l0.47-0.094c-0.28-2.941-1.62-7.405-3.41-11.219-1.79-3.813-4.06-6.145-4.06-6.145z"/>
  <path id="path3036" style="fill-rule:evenodd;fill:#000000" d="m111.66 27.844c-0.33 0.094 0.14-0.341-0.18-0.247 0.8 2.724 0.72 6 1.26 8.787 0.24 1.311 0.49 2.639 0.42 3.977 0.04 0.145-0.17 0.133 0.04 0.163 0.27 0.102 0.99-0.981 0.91-1.749-0.38-3.081-1.14-6.099-1.94-9.092-0.17-0.614-0.34-1.228-0.51-1.839z"/>
  <metadata>
    <rdf:RDF>
      <cc:Work>
        <dc:format>image/svg+xml</dc:format>
        <dc:type rdf:resource="http://purl.org/dc/dcmitype/StillImage"/>
        <cc:license rdf:resource="http://creativecommons.org/licenses/publicdomain/"/>
        <dc:publisher>
          <cc:Agent rdf:about="http://openclipart.org/">
            <dc:title>Openclipart</dc:title>
          </cc:Agent>
        </dc:publisher>
        <dc:title>Bananas</dc:title>
        <dc:date>2008-02-06T13:20:24</dc:date>
        <dc:description>More bananas</dc:description>
        <dc:source>https://openclipart.org/detail/12987/bananas-by-nicubunu</dc:source>
        <dc:creator>
          <cc:Agent>
            <dc:title>nicubunu</dc:title>
          </cc:Agent>
        </dc:creator>
        <dc:subject>
          <rdf:Bag>
            <rdf:li>banana</rdf:li>
            <rdf:li>exotic</rdf:li>
            <rdf:li>food</rdf:li>
            <rdf:li>fruit</rdf:li>
          </rdf:Bag>
        </dc:subject>
      </cc:Work>
      <cc:License rdf:about="http://creativecommons.org/licenses/publicdomain/">
        <cc:permits rdf:resource="http://creativecommons.org/ns#Reproduction"/>
        <cc:permits rdf:resource="http://creativecommons.org/ns#Distribution"/>
        <cc:permits rdf:resource="http://creativecommons.org/ns#DerivativeWorks"/>
      </cc:License>
    </rdf:RDF>
  </metadata>
</svg>
